<svg xmlns="http://www.w3.org/2000/svg"
 xmlns:xlink="http://www.w3.org/1999/xlink"
 width="19px" height="15px"  viewBox="0 0 19 15">
<path fill-rule="evenodd"  fill="#b8a9a4"
 d="M17.0,10.267883 C17.0,10.267883 17.0,3.7322388 17.0,3.7322388 C17.0,3.7322388 11.753296,7.0 11.753296,7.0 C11.753296,7.0 17.0,10.267883 17.0,10.267883 ZM1.126709,12.136475 C1.3590698,12.645142 1.8865356,13.000061 2.5,13.000061 C2.5,13.000061 15.500061,13.000061 15.500061,13.000061 C16.1109,13.000061 16.637146,12.64801 16.871094,12.142883 C16.95459,11.96283 17.0,11.763672 17.0,11.55365 C17.0,11.55365 10.719971,7.6428833 10.719971,7.6428833 C10.719971,7.6428833 9.0,8.714355 9.0,8.714355 C9.0,8.714355 7.2800293,7.6428833 7.2800293,7.6428833 C7.2800293,7.6428833 1.0,11.55365 1.0,11.55365 C1.0,11.76062 1.0455322,11.958435 1.126709,12.136475 ZM1.0,3.7322388 C1.0,3.7322388 1.0,10.267883 1.0,10.267883 C1.0,10.267883 6.246704,7.0 6.246704,7.0 C6.246704,7.0 1.0,3.7322388 1.0,3.7322388 ZM2.5,1.000061 C1.8865356,1.000061 1.3590698,1.3549194 1.126709,1.8636475 C1.0448608,2.0421753 1.0,2.2385864 1.0,2.4464722 C1.0,2.4464722 9.0,7.428589 9.0,7.428589 C9.0,7.428589 17.0,2.4464722 17.0,2.4464722 C17.0,2.2368164 16.954285,2.0370483 16.871094,1.8572388 C16.637146,1.3519897 16.1109,1.000061 15.500061,1.000061 C15.500061,1.000061 2.5,1.000061 2.5,1.000061 Z"/>
</svg>