<svg width="12px" height="22px"  viewBox="0 0 12 22">
<path fill-rule="evenodd"  fill="#6b6b6b"
 d="M1.9980469,7.948181 C1.9980469,7.948181 3.927002,7.948181 3.927002,7.948181 C3.927002,7.948181 3.927002,7.1032715 3.927002,7.1032715 C3.927002,7.1032715 3.927002,6.275818 3.927002,6.275818 C3.927002,6.275818 3.927002,6.1377563 3.927002,6.1377563 C3.927002,5.3412476 3.9481812,4.1099854 4.5481567,3.3480835 C5.18042,2.5410156 6.048584,1.9927368 7.541382,1.9927368 C9.973572,1.9927368 10.998962,2.3272095 10.998962,2.3272095 C10.998962,2.3272095 10.516663,5.0859375 10.516663,5.0859375 C10.516663,5.0859375 9.712891,4.8617554 8.962769,4.8617554 C8.212891,4.8617554 7.541382,5.1204834 7.541382,5.8446045 C7.541382,5.8446045 7.541382,6.1377563 7.541382,6.1377563 C7.541382,6.1377563 7.541382,7.1032715 7.541382,7.1032715 C7.541382,7.1032715 7.541382,7.948181 7.541382,7.948181 C7.541382,7.948181 10.616577,7.948181 10.616577,7.948181 C10.616577,7.948181 10.402161,10.641418 10.402161,10.641418 C10.402161,10.641418 7.541382,10.641418 7.541382,10.641418 C7.541382,10.641418 7.541382,20.00061 7.541382,20.00061 C7.541382,20.00061 3.927002,20.00061 3.927002,20.00061 C3.927002,20.00061 3.927002,10.641418 3.927002,10.641418 C3.927002,10.641418 1.9980469,10.641418 1.9980469,10.641418 C1.9980469,10.641418 1.9980469,7.948181 1.9980469,7.948181 Z"/>
</svg>