<svg xmlns="http://www.w3.org/2000/svg"
 xmlns:xlink="http://www.w3.org/1999/xlink"
 width="14px" height="25px"  viewBox="0 0 14 25">
<path fill-rule="evenodd"  fill="#b8a9a4"
 d="M1.9976349,8.939636 C1.9976349,8.939636 4.355255,8.939636 4.355255,8.939636 C4.355255,8.939636 4.355255,7.9538574 4.355255,7.9538574 C4.355255,7.9538574 4.355255,6.9884644 4.355255,6.9884644 C4.355255,6.9884644 4.355255,6.8274536 4.355255,6.8274536 C4.355255,5.8981323 4.3811493,4.461731 5.1144257,3.572815 C5.887192,2.6312256 6.9482727,1.9914551 8.772827,1.9914551 C11.745499,1.9914551 12.998764,2.3817139 12.998764,2.3817139 C12.998764,2.3817139 12.409256,5.6002197 12.409256,5.6002197 C12.409256,5.6002197 11.426926,5.338745 10.51004,5.338745 C9.593582,5.338745 8.772827,5.640625 8.772827,6.4854126 C8.772827,6.4854126 8.772827,6.8274536 8.772827,6.8274536 C8.772827,6.8274536 8.772827,7.9538574 8.772827,7.9538574 C8.772827,7.9538574 8.772827,8.939636 8.772827,8.939636 C8.772827,8.939636 12.531418,8.939636 12.531418,8.939636 C12.531418,8.939636 12.269272,12.081726 12.269272,12.081726 C12.269272,12.081726 8.772827,12.081726 8.772827,12.081726 C8.772827,12.081726 8.772827,23.000732 8.772827,23.000732 C8.772827,23.000732 4.355255,23.000732 4.355255,23.000732 C4.355255,23.000732 4.355255,12.081726 4.355255,12.081726 C4.355255,12.081726 1.9976349,12.081726 1.9976349,12.081726 C1.9976349,12.081726 1.9976349,8.939636 1.9976349,8.939636 Z"/>
</svg>