<svg xmlns="http://www.w3.org/2000/svg" width="94" height="90" viewBox="0 0 94 90">
	<style type="text/css">
		.st0{fill:#000000;}
	</style>
	<path class="st0" d="M73.6,67.23C61.27,62.74 57.33,58.95 57.33,50.84C57.33,45.97 61.09,47.56 62.75,38.64C63.43,34.94 66.76,38.58 67.39,30.13C67.39,26.77 65.58,25.93 65.58,25.93C65.58,25.93 66.5,20.95 66.86,17.11C67.31,12.34 64.1,0 46.99,0C29.89,0 26.68,12.34 27.13,17.11C27.49,20.95 28.41,25.93 28.41,25.93C28.41,25.93 26.6,26.77 26.6,30.13C27.23,38.58 30.56,34.94 31.24,38.64C32.9,47.56 36.66,45.97 36.66,50.84C36.66,58.95 32.72,62.74 20.39,67.23C8.03,71.74 0,76.34 0,79.47L0,90L46.99,90L93.99,90L93.99,79.47C93.99,76.34 85.96,71.74 73.6,67.23"/>
</svg>