<svg xmlns="http://www.w3.org/2000/svg" width="259" height="252" viewBox="0 0 259 252">
	<style type="text/css">
		.st2{stroke:#b3b3b3;fill:none;stroke-width:12;}
		.st1{stroke:#ffffff;fill:none;stroke-width:12.62;}
		.st0{fill:#b3b3b3;}
	</style>
	<path class="st0" d="M29.99,69L0,252L258.99,252L228.99,69Z"/>
	<path class="st1" d="M159.42,118.47C147.08,118.47 136.13,124.37 129.17,133.48C122.21,124.37 111.26,118.47 98.92,118.47C77.87,118.47 60.81,135.54 60.81,156.58C60.81,177.63 77.87,194.69 98.92,194.69C111.26,194.69 122.21,188.79 129.17,179.69C136.13,188.79 147.08,194.69 159.42,194.69C180.47,194.69 197.53,177.63 197.53,156.58C197.53,135.54 180.47,118.47 159.42,118.47Z"/>
	<path class="st2" d="M177.25,77L177.25,54.08C177.25,27.52 155.73,6 129.17,6C102.62,6 81.09,27.52 81.09,54.08L81.09,77"/>
</svg>