<svg xmlns="http://www.w3.org/2000/svg"
 xmlns:xlink="http://www.w3.org/1999/xlink"
 width="25px" height="25px"  viewBox="0 0 25 25">
<path fill-rule="evenodd"  fill="#6b6b6b"
 d="M12.4646,1.9998779 C6.645752,1.9998779 1.9281006,6.700989 1.9281006,12.500183 C1.9281006,16.799622 4.522339,20.492981 8.234863,22.117065 C8.205322,21.38385 8.229492,20.503662 8.418091,19.705933 C8.620605,18.853638 9.773682,13.984497 9.773682,13.984497 C9.773682,13.984497 9.437378,13.314209 9.437378,12.323181 C9.437378,10.767334 10.342041,9.605286 11.469238,9.605286 C12.42749,9.605286 12.890625,10.322449 12.890625,11.181335 C12.890625,12.141541 12.276245,13.577759 11.959961,14.907715 C11.696167,16.021606 12.520508,16.930115 13.623291,16.930115 C15.619019,16.930115 16.963745,14.375183 16.963745,11.347473 C16.963745,9.046448 15.408203,7.3239136 12.579712,7.3239136 C9.383545,7.3239136 7.392578,9.699097 7.392578,12.352417 C7.392578,13.266968 7.663208,13.912231 8.087158,14.411804 C8.2821045,14.640808 8.309204,14.733276 8.238403,14.996887 C8.187866,15.190186 8.071655,15.655151 8.024048,15.839539 C7.9537354,16.105408 7.737549,16.200317 7.49646,16.102112 C6.024292,15.503357 5.338623,13.8966675 5.338623,12.090881 C5.338623,9.108154 7.862793,5.5317993 12.8688965,5.5317993 C16.891602,5.5317993 19.539185,8.4328 19.539185,11.546753 C19.539185,15.665527 17.240967,18.742798 13.854248,18.742798 C12.716675,18.742798 11.646484,18.129883 11.280029,17.43396 C11.280029,17.43396 10.668457,19.853027 10.538818,20.320251 C10.31543,21.129944 9.87793,21.939026 9.478149,22.569641 C10.425903,22.84845 11.427002,23.000183 12.4646,23.000183 C18.28247,23.000183 23.000244,18.29895 23.000244,12.500183 C23.000244,6.700989 18.28247,1.9998779 12.4646,1.9998779 Z"/>
</svg>