<svg xmlns="http://www.w3.org/2000/svg"
 xmlns:xlink="http://www.w3.org/1999/xlink"
 width="25px" height="25px"  viewBox="0 0 25 25">
<path fill-rule="evenodd"  fill="#b8a9a4"
 d="M12.46463,1.999939 C6.645813,1.999939 1.9281311,6.700989 1.9281311,12.500305 C1.9281311,16.799622 4.522278,20.493042 8.234894,22.117065 C8.205261,21.383911 8.229462,20.503723 8.418152,19.705933 C8.620636,18.853699 9.773682,13.984497 9.773682,13.984497 C9.773682,13.984497 9.437378,13.314209 9.437378,12.323303 C9.437378,10.767395 10.342102,9.605286 11.469208,9.605286 C12.427429,9.605286 12.890625,10.32251 12.890625,11.181335 C12.890625,12.141541 12.276215,13.577759 11.960022,14.907776 C11.696228,16.021545 12.520477,16.930176 13.6232605,16.930176 C15.619049,16.930176 16.963715,14.375122 16.963715,11.347534 C16.963715,9.046509 15.408264,7.3239746 12.579712,7.3239746 C9.383575,7.3239746 7.392517,9.699158 7.392517,12.352478 C7.392517,13.267029 7.6631775,13.9123535 8.087189,14.411804 C8.2821045,14.640869 8.309204,14.733337 8.238464,14.996948 C8.187897,15.190247 8.071655,15.65509 8.024017,15.839539 C7.9537354,16.105408 7.737488,16.200378 7.49646,16.102234 C6.0243225,15.503479 5.3385925,13.89679 5.3385925,12.091003 C5.3385925,9.108154 7.862732,5.5317993 12.8689575,5.5317993 C16.891571,5.5317993 19.539154,8.432861 19.539154,11.546753 C19.539154,15.665527 17.240967,18.742798 13.854218,18.742798 C12.716675,18.742798 11.646454,18.129883 11.28009,17.434021 C11.28009,17.434021 10.668396,19.853088 10.538788,20.320251 C10.31543,21.130005 9.87796,21.939026 9.478149,22.569702 C10.425873,22.84845 11.427002,23.000183 12.46463,23.000183 C18.28244,23.000183 23.000183,18.29889 23.000183,12.500305 C23.000183,6.700989 18.28244,1.999939 12.46463,1.999939 Z"/>
</svg>