<svg width="19px" height="19px"  viewBox="0 0 19 19">
<path fill-rule="evenodd"  fill="#ffffff"
 d="M15.246826,12.135786 C17.56543,9.817303 17.56543,6.0449486 15.246826,3.7264652 C12.928345,1.4078083 9.156006,1.4078083 6.8375244,3.7264652 C4.9020996,5.6617317 4.5827637,8.610094 5.878418,10.880178 C5.878418,10.880178 2.4508057,14.307863 2.4508057,14.307863 C1.8446045,14.914061 1.8446045,15.896904 2.4508057,16.503101 C2.4508057,16.503101 2.4700928,16.522635 2.4700928,16.522635 C3.076294,17.128832 4.059204,17.128832 4.6654053,16.522635 C4.6654053,16.522635 8.093018,13.094776 8.093018,13.094776 C10.363281,14.390659 13.311523,14.071226 15.246826,12.135786 ZM8.22168,10.751575 C6.666382,9.196413 6.666382,6.6658382 8.22168,5.1105022 C9.776855,3.5551672 12.307495,3.5551672 13.862671,5.1105022 C15.418091,6.6658382 15.418091,9.196413 13.862671,10.751575 C12.307495,12.306911 9.776855,12.306911 8.22168,10.751575 Z"/>
</svg>