<svg xmlns="http://www.w3.org/2000/svg"
 xmlns:xlink="http://www.w3.org/1999/xlink"
 width="23px" height="19px"  viewBox="0 0 23 19">
<path fill-rule="evenodd"  fill="#6b6b6b"
 d="M21.91571,3.1694336 C21.16748,3.5021362 20.36377,3.7270508 19.519653,3.828308 C20.381042,3.3104858 21.042786,2.4902954 21.354248,1.5131226 C20.547546,1.9926147 19.655151,2.3409424 18.705078,2.5286255 C17.943909,1.7153931 16.85968,1.2071533 15.659607,1.2071533 C13.355713,1.2071533 11.48822,3.0807495 11.48822,5.3916016 C11.48822,5.7196655 11.524963,6.0389404 11.59613,6.345276 C8.129089,6.1706543 5.0550537,4.5046997 2.9977417,1.9730835 C2.6384277,2.5911865 2.4326172,3.3099365 2.4326172,4.0769043 C2.4326172,5.5285034 3.1693726,6.8095093 4.2888184,7.5598755 C3.6047363,7.537964 2.9613647,7.3496704 2.399109,7.036499 C2.3987427,7.053772 2.3987427,7.071411 2.3987427,7.088867 C2.3987427,9.116455 3.836853,10.807617 5.7453003,11.192261 C5.3949585,11.287659 5.0266113,11.338989 4.645996,11.338989 C4.3774414,11.338989 4.1157837,11.312561 3.860962,11.263794 C4.3918457,12.926147 5.932678,14.135925 7.7582397,14.169617 C6.3305664,15.292114 4.5316772,15.96106 2.5771484,15.96106 C2.2405396,15.96106 1.9082031,15.941223 1.5820312,15.902466 C3.4281616,17.089844 5.6209106,17.782593 7.9766846,17.782593 C15.6502075,17.782593 19.846191,11.406372 19.846191,5.876648 C19.846191,5.6953125 19.841919,5.5150146 19.833984,5.3356323 C20.649231,4.7454834 21.356384,4.008606 21.91571,3.1694336 Z"/>
</svg>