<svg xmlns="http://www.w3.org/2000/svg"
 xmlns:xlink="http://www.w3.org/1999/xlink"
 width="23px" height="19px"  viewBox="0 0 23 19">
<path fill-rule="evenodd"  fill="#b8a9a4"
 d="M21.915771,3.1694946 C21.167542,3.5021973 20.36377,3.7270508 19.519714,3.8284302 C20.381104,3.3104248 21.042847,2.4902954 21.354248,1.5131226 C20.547607,1.9926758 19.655151,2.3410034 18.705078,2.5286255 C17.943909,1.715332 16.859741,1.2072754 15.659607,1.2072754 C13.355774,1.2072754 11.48822,3.0806885 11.48822,5.3916016 C11.48822,5.7197266 11.525024,6.0390015 11.596191,6.345276 C8.129089,6.1707153 5.0551147,4.5047607 2.9978027,1.9730835 C2.6384277,2.5913086 2.4326782,3.3099365 2.4326782,4.0769043 C2.4326782,5.5286255 3.1693726,6.8096313 4.2888184,7.5598755 C3.6047363,7.538025 2.9613647,7.3497314 2.399109,7.036499 C2.3987427,7.053894 2.3987427,7.071472 2.3987427,7.088867 C2.3987427,9.116516 3.836853,10.807739 5.7453003,11.192322 C5.3949585,11.287598 5.0266113,11.33905 4.646057,11.33905 C4.3774414,11.33905 4.1158447,11.312561 3.860962,11.263794 C4.3919067,12.9262085 5.932678,14.135925 7.7582397,14.169617 C6.3306274,15.292175 4.5317383,15.961121 2.5771484,15.961121 C2.2405396,15.961121 1.9082642,15.941223 1.5820923,15.902466 C3.4281616,17.089844 5.6209106,17.782654 7.9766846,17.782654 C15.650269,17.782654 19.846191,11.406494 19.846191,5.876648 C19.846191,5.6953125 19.841919,5.5150757 19.833984,5.3356934 C20.649231,4.7455444 21.356384,4.008606 21.915771,3.1694946 Z"/>
</svg>